<?xml version="1.0" encoding="iso-8859-1"?>
<!-- Generator: Adobe Illustrator 19.0.0, SVG Export Plug-In . SVG Version: 6.00 Build 0)  -->
<svg version="1.1" id="Capa_1" xmlns="http://www.w3.org/2000/svg" xmlns:xlink="http://www.w3.org/1999/xlink" x="0px" y="0px"
	 viewBox="0 0 496 496" style="enable-background:new 0 0 496 496;" xml:space="preserve">
<rect x="288" y="207.943" style="fill:#FFA64D;" width="176" height="96"/>
<g>
	<path style="fill:#333333;" d="M456,127.943h-88.352c-1.256-8.736-6.12-16.592-13.592-21.568L203.088,5.727
		c-11.36-7.56-26.808-7.56-38.176,0L13.936,106.375C5.208,112.183,0,121.919,0,132.415c0,11.56,6.336,22.136,16.52,27.592
		c4.64,2.48,9.712,3.712,14.776,3.712c0.232,0,0.472-0.048,0.704-0.048v156.272h96h112h16v136c0,22.056,17.944,40,40,40h160
		c22.056,0,40-17.944,40-40v-288C496,145.887,478.056,127.943,456,127.943z M480,167.943v8H272v-8c0-13.232,10.768-24,24-24h160
		C469.232,143.943,480,154.711,480,167.943z M272,191.943h208v224H272V191.943z M24.08,145.895c-5.064-2.704-8.08-7.752-8.08-13.48
		c0-5.128,2.544-9.88,6.816-12.728l150.96-100.648c6.096-4.048,14.368-4.048,20.448,0l150.968,100.648
		c2.976,1.984,5.048,4.936,6.072,8.256h-48.832l-99.344-66.216c-11.36-7.56-26.808-7.56-38.176,0L39.784,145.135
		C35,148.335,29.144,148.607,24.08,145.895z M144,303.943v-56h32v56H144z M192,303.943v-56h32v56H192z M240,303.943v-72H128v72H48
		v-145.12c0.216-0.136,0.448-0.232,0.656-0.368l125.12-83.416c6.096-4.048,14.368-4.048,20.448,0l85.048,56.696
		C265.576,138.095,256,151.879,256,167.943v136H240z M456,479.943H296c-13.232,0-24-10.768-24-24v-24h208v24
		C480,469.175,469.232,479.943,456,479.943z"/>
	<rect x="344" y="447.943" style="fill:#333333;" width="64" height="16"/>
	<path style="fill:#333333;" d="M184,103.943c-30.872,0-56,25.128-56,56s25.128,56,56,56s56-25.128,56-56
		S214.872,103.943,184,103.943z M223.192,151.943H192v-31.192C207.648,123.943,220,136.295,223.192,151.943z M176,120.751v31.192
		h-31.192C148,136.295,160.352,123.943,176,120.751z M144.808,167.943H176v31.192C160.352,195.943,148,183.591,144.808,167.943z
		 M192,199.135v-31.192h31.192C220,183.591,207.648,195.943,192,199.135z"/>
	<rect x="288" y="319.943" style="fill:#333333;" width="16" height="16"/>
	<rect x="320" y="319.943" style="fill:#333333;" width="144" height="16"/>
	<rect x="288" y="351.943" style="fill:#333333;" width="176" height="16"/>
	<rect x="448" y="383.943" style="fill:#333333;" width="16" height="16"/>
	<rect x="288" y="383.943" style="fill:#333333;" width="144" height="16"/>
	<path style="fill:#333333;" d="M144,431.943c-17.648,0-32,14.352-32,32s14.352,32,32,32s32-14.352,32-32
		S161.648,431.943,144,431.943z M144,479.943c-8.824,0-16-7.176-16-16s7.176-16,16-16s16,7.176,16,16S152.824,479.943,144,479.943z"
		/>
	<path style="fill:#333333;" d="M144,399.943c-35.288,0-64,28.712-64,64h16c0-26.472,21.528-48,48-48s48,21.528,48,48h16
		C208,428.655,179.288,399.943,144,399.943z"/>
	<path style="fill:#333333;" d="M144,367.943c-52.936,0-96,43.064-96,96h16c0-44.112,35.888-80,80-80s80,35.888,80,80h16
		C240,411.007,196.936,367.943,144,367.943z"/>
</g>
<g>
</g>
<g>
</g>
<g>
</g>
<g>
</g>
<g>
</g>
<g>
</g>
<g>
</g>
<g>
</g>
<g>
</g>
<g>
</g>
<g>
</g>
<g>
</g>
<g>
</g>
<g>
</g>
<g>
</g>
</svg>
